<svg xmlns="http://www.w3.org/2000/svg" viewBox="0 0 200 400" width="200" height="400">
  <!-- Sky background -->
  <defs>
    <linearGradient id="skyGradient" x1="0%" y1="0%" x2="0%" y2="100%">
      <stop offset="0%" style="stop-color:#87CEEB;stop-opacity:1" />
      <stop offset="100%" style="stop-color:#E0F6FF;stop-opacity:1" />
    </linearGradient>
    <linearGradient id="buildingGradient" x1="0%" y1="0%" x2="100%" y2="0%">
      <stop offset="0%" style="stop-color:#D3D3D3;stop-opacity:1" />
      <stop offset="50%" style="stop-color:#F5F5F5;stop-opacity:1" />
      <stop offset="100%" style="stop-color:#C0C0C0;stop-opacity:1" />
    </linearGradient>
    <linearGradient id="shadowGradient" x1="0%" y1="0%" x2="100%" y2="0%">
      <stop offset="0%" style="stop-color:#A9A9A9;stop-opacity:1" />
      <stop offset="100%" style="stop-color:#808080;stop-opacity:1" />
    </linearGradient>
  </defs>
  
  <!-- Background -->
  <rect width="200" height="400" fill="url(#skyGradient)"/>
  
  <!-- Building base (wider bottom section) -->
  <rect x="40" y="280" width="120" height="120" fill="url(#buildingGradient)" stroke="#999" stroke-width="1"/>
  
  <!-- Building middle section -->
  <rect x="50" y="200" width="100" height="80" fill="url(#buildingGradient)" stroke="#999" stroke-width="1"/>
  
  <!-- Building upper section -->
  <rect x="60" y="120" width="80" height="80" fill="url(#buildingGradient)" stroke="#999" stroke-width="1"/>
  
  <!-- Building top section -->
  <rect x="70" y="60" width="60" height="60" fill="url(#buildingGradient)" stroke="#999" stroke-width="1"/>
  
  <!-- Spire base -->
  <rect x="85" y="40" width="30" height="20" fill="url(#shadowGradient)" stroke="#777" stroke-width="1"/>
  
  <!-- Spire -->
  <polygon points="100,40 95,10 105,10" fill="#B8860B" stroke="#8B7355" stroke-width="1"/>
  
  <!-- Antenna -->
  <line x1="100" y1="10" x2="100" y2="5" stroke="#666" stroke-width="2"/>
  <circle cx="100" cy="5" r="2" fill="#FF0000"/>
  
  <!-- Windows pattern for base -->
  <g fill="#4169E1" opacity="0.7">
    <!-- Base section windows -->
    <rect x="45" y="290" width="8" height="12"/>
    <rect x="58" y="290" width="8" height="12"/>
    <rect x="71" y="290" width="8" height="12"/>
    <rect x="84" y="290" width="8" height="12"/>
    <rect x="97" y="290" width="8" height="12"/>
    <rect x="110" y="290" width="8" height="12"/>
    <rect x="123" y="290" width="8" height="12"/>
    <rect x="136" y="290" width="8" height="12"/>
    <rect x="149" y="290" width="8" height="12"/>
    
    <rect x="45" y="310" width="8" height="12"/>
    <rect x="58" y="310" width="8" height="12"/>
    <rect x="71" y="310" width="8" height="12"/>
    <rect x="84" y="310" width="8" height="12"/>
    <rect x="97" y="310" width="8" height="12"/>
    <rect x="110" y="310" width="8" height="12"/>
    <rect x="123" y="310" width="8" height="12"/>
    <rect x="136" y="310" width="8" height="12"/>
    <rect x="149" y="310" width="8" height="12"/>
    
    <rect x="45" y="330" width="8" height="12"/>
    <rect x="58" y="330" width="8" height="12"/>
    <rect x="71" y="330" width="8" height="12"/>
    <rect x="84" y="330" width="8" height="12"/>
    <rect x="97" y="330" width="8" height="12"/>
    <rect x="110" y="330" width="8" height="12"/>
    <rect x="123" y="330" width="8" height="12"/>
    <rect x="136" y="330" width="8" height="12"/>
    <rect x="149" y="330" width="8" height="12"/>
    
    <rect x="45" y="350" width="8" height="12"/>
    <rect x="58" y="350" width="8" height="12"/>
    <rect x="71" y="350" width="8" height="12"/>
    <rect x="84" y="350" width="8" height="12"/>
    <rect x="97" y="350" width="8" height="12"/>
    <rect x="110" y="350" width="8" height="12"/>
    <rect x="123" y="350" width="8" height="12"/>
    <rect x="136" y="350" width="8" height="12"/>
    <rect x="149" y="350" width="8" height="12"/>
    
    <rect x="45" y="370" width="8" height="12"/>
    <rect x="58" y="370" width="8" height="12"/>
    <rect x="71" y="370" width="8" height="12"/>
    <rect x="84" y="370" width="8" height="12"/>
    <rect x="97" y="370" width="8" height="12"/>
    <rect x="110" y="370" width="8" height="12"/>
    <rect x="123" y="370" width="8" height="12"/>
    <rect x="136" y="370" width="8" height="12"/>
    <rect x="149" y="370" width="8" height="12"/>
  </g>
  
  <!-- Windows pattern for middle section -->
  <g fill="#4169E1" opacity="0.7">
    <rect x="55" y="210" width="8" height="12"/>
    <rect x="68" y="210" width="8" height="12"/>
    <rect x="81" y="210" width="8" height="12"/>
    <rect x="94" y="210" width="8" height="12"/>
    <rect x="107" y="210" width="8" height="12"/>
    <rect x="120" y="210" width="8" height="12"/>
    <rect x="133" y="210" width="8" height="12"/>
    
    <rect x="55" y="230" width="8" height="12"/>
    <rect x="68" y="230" width="8" height="12"/>
    <rect x="81" y="230" width="8" height="12"/>
    <rect x="94" y="230" width="8" height="12"/>
    <rect x="107" y="230" width="8" height="12"/>
    <rect x="120" y="230" width="8" height="12"/>
    <rect x="133" y="230" width="8" height="12"/>
    
    <rect x="55" y="250" width="8" height="12"/>
    <rect x="68" y="250" width="8" height="12"/>
    <rect x="81" y="250" width="8" height="12"/>
    <rect x="94" y="250" width="8" height="12"/>
    <rect x="107" y="250" width="8" height="12"/>
    <rect x="120" y="250" width="8" height="12"/>
    <rect x="133" y="250" width="8" height="12"/>
  </g>
  
  <!-- Windows pattern for upper section -->
  <g fill="#4169E1" opacity="0.7">
    <rect x="65" y="130" width="8" height="12"/>
    <rect x="78" y="130" width="8" height="12"/>
    <rect x="91" y="130" width="8" height="12"/>
    <rect x="104" y="130" width="8" height="12"/>
    <rect x="117" y="130" width="8" height="12"/>
    <rect x="130" y="130" width="8" height="12"/>
    
    <rect x="65" y="150" width="8" height="12"/>
    <rect x="78" y="150" width="8" height="12"/>
    <rect x="91" y="150" width="8" height="12"/>
    <rect x="104" y="150" width="8" height="12"/>
    <rect x="117" y="150" width="8" height="12"/>
    <rect x="130" y="150" width="8" height="12"/>
    
    <rect x="65" y="170" width="8" height="12"/>
    <rect x="78" y="170" width="8" height="12"/>
    <rect x="91" y="170" width="8" height="12"/>
    <rect x="104" y="170" width="8" height="12"/>
    <rect x="117" y="170" width="8" height="12"/>
    <rect x="130" y="170" width="8" height="12"/>
  </g>
  
  <!-- Windows pattern for top section -->
  <g fill="#4169E1" opacity="0.7">
    <rect x="75" y="70" width="8" height="12"/>
    <rect x="88" y="70" width="8" height="12"/>
    <rect x="101" y="70" width="8" height="12"/>
    <rect x="114" y="70" width="8" height="12"/>
    
    <rect x="75" y="90" width="8" height="12"/>
    <rect x="88" y="90" width="8" height="12"/>
    <rect x="101" y="90" width="8" height="12"/>
    <rect x="114" y="90" width="8" height="12"/>
    
    <rect x="75" y="110" width="8" height="12"/>
    <rect x="88" y="110" width="8" height="12"/>
    <rect x="101" y="110" width="8" height="12"/>
    <rect x="114" y="110" width="8" height="12"/>
  </g>
  
  <!-- Special lighting effect on spire -->
  <circle cx="100" cy="30" r="3" fill="#FFD700" opacity="0.8"/>
  
  <!-- Building shadows -->
  <polygon points="160,280 160,400 170,400 170,290" fill="url(#shadowGradient)" opacity="0.3"/>
  <polygon points="150,200 150,280 160,280 160,210" fill="url(#shadowGradient)" opacity="0.3"/>
  <polygon points="140,120 140,200 150,200 150,130" fill="url(#shadowGradient)" opacity="0.3"/>
  <polygon points="130,60 130,120 140,120 140,70" fill="url(#shadowGradient)" opacity="0.3"/>
</svg>