<svg width="512" height="512" viewBox="0 0 512 512" xmlns="http://www.w3.org/2000/svg">
  <!-- 背景圆形 -->
  <circle cx="256" cy="256" r="250" fill="#6366f1" stroke="#4f46e5" stroke-width="8"/>

  <!-- 脸部圆形 -->
  <circle cx="256" cy="260" r="160" fill="#fbbf24" stroke="#f59e0b" stroke-width="4"/>

  <!-- 墨镜 -->
  <!-- 左镜片 -->
  <ellipse cx="200" cy="240" rx="45" ry="35" fill="#1f2937" stroke="#111827" stroke-width="3"/>
  <!-- 右镜片 -->
  <ellipse cx="312" cy="240" rx="45" ry="35" fill="#1f2937" stroke="#111827" stroke-width="3"/>
  <!-- 镜片连接 -->
  <path d="M245 240 Q256 230, 267 240" fill="none" stroke="#1f2937" stroke-width="6" stroke-linecap="round"/>
  <!-- 镜片光泽 -->
  <ellipse cx="210" cy="230" rx="15" ry="10" fill="#374151" opacity="0.7"/>
  <ellipse cx="322" cy="230" rx="15" ry="10" fill="#374151" opacity="0.7"/>

  <!-- 嘴巴（微笑） -->
  <path d="M200 300 Q256 340, 312 300" fill="none" stroke="#dc2626" stroke-width="6" stroke-linecap="round"/>

  <!-- English 文字 -->
  <text x="256" y="400" font-family="Arial, sans-serif" font-size="42" font-weight="bold" fill="#1f2937" text-anchor="middle">English</text>

  <!-- 装饰星星 -->
  <g fill="#fbbf24" stroke="#f59e0b" stroke-width="2">
    <path d="M100 100 L105 110 L115 110 L107 117 L110 127 L100 120 L90 127 L93 117 L85 110 L95 110 Z"/>
    <path d="M400 120 L403 127 L410 127 L404 132 L406 139 L400 134 L394 139 L396 132 L390 127 L397 127 Z"/>
    <path d="M420 380 L423 387 L430 387 L424 392 L426 399 L420 394 L414 399 L416 392 L410 387 L417 387 Z"/>
    <path d="M80 380 L83 387 L90 387 L84 392 L86 399 L80 394 L74 399 L76 392 L70 387 L77 387 Z"/>
  </g>

  <!-- Quest 文字 -->
  <text x="256" y="70" font-family="Arial, sans-serif" font-size="36" font-weight="bold" fill="#ffffff" text-anchor="middle">Quest G6</text>
</svg>