<svg width="192" height="192" viewBox="0 0 192 192" xmlns="http://www.w3.org/2000/svg">
  <!-- 背景圆形 -->
  <circle cx="96" cy="96" r="90" fill="#6366f1" stroke="#4f46e5" stroke-width="3"/>

  <!-- 脸部圆形 -->
  <circle cx="96" cy="98" r="60" fill="#fbbf24" stroke="#f59e0b" stroke-width="2"/>

  <!-- 墨镜 -->
  <!-- 左镜片 -->
  <ellipse cx="75" cy="90" rx="17" ry="13" fill="#1f2937" stroke="#111827" stroke-width="2"/>
  <!-- 右镜片 -->
  <ellipse cx="117" cy="90" rx="17" ry="13" fill="#1f2937" stroke="#111827" stroke-width="2"/>
  <!-- 镜片连接 -->
  <path d="M92 90 Q96 86, 100 90" fill="none" stroke="#1f2937" stroke-width="3" stroke-linecap="round"/>
  <!-- 镜片光泽 -->
  <ellipse cx="79" cy="86" rx="6" ry="4" fill="#374151" opacity="0.7"/>
  <ellipse cx="121" cy="86" rx="6" ry="4" fill="#374151" opacity="0.7"/>

  <!-- 嘴巴（微笑） -->
  <path d="M75 112 Q96 127, 117 112" fill="none" stroke="#dc2626" stroke-width="3" stroke-linecap="round"/>

  <!-- English 文字 -->
  <text x="96" y="155" font-family="Arial, sans-serif" font-size="16" font-weight="bold" fill="#1f2937" text-anchor="middle">English</text>

  <!-- Quest G6 文字 -->
  <text x="96" y="35" font-family="Arial, sans-serif" font-size="14" font-weight="bold" fill="#ffffff" text-anchor="middle">Quest G6</text>

  <!-- 装饰星星 -->
  <g fill="#fbbf24" stroke="#f59e0b" stroke-width="1">
    <path d="M40 40 L42 44 L46 44 L43 46 L44 50 L40 47 L36 50 L37 46 L34 44 L38 44 Z"/>
    <path d="M150 45 L151 48 L154 48 L152 50 L153 53 L150 51 L147 53 L148 50 L146 48 L149 48 Z"/>
    <path d="M155 145 L156 148 L159 148 L157 150 L158 153 L155 151 L152 153 L153 150 L151 148 L154 148 Z"/>
    <path d="M35 145 L36 148 L39 148 L37 150 L38 153 L35 151 L32 153 L33 150 L31 148 L34 148 Z"/>
  </g>
</svg>