<svg width="96" height="96" viewBox="0 0 96 96" xmlns="http://www.w3.org/2000/svg">
  <!-- 背景圆形 -->
  <circle cx="48" cy="48" r="45" fill="#6366f1" stroke="#4f46e5" stroke-width="2"/>

  <!-- 脸部圆形 -->
  <circle cx="48" cy="49" r="30" fill="#fbbf24" stroke="#f59e0b" stroke-width="1"/>

  <!-- 墨镜 -->
  <!-- 左镜片 -->
  <ellipse cx="38" cy="45" rx="9" ry="7" fill="#1f2937" stroke="#111827" stroke-width="1"/>
  <!-- 右镜片 -->
  <ellipse cx="58" cy="45" rx="9" ry="7" fill="#1f2937" stroke="#111827" stroke-width="1"/>
  <!-- 镜片连接 -->
  <path d="M47 45 Q48 43, 50 45" fill="none" stroke="#1f2937" stroke-width="2" stroke-linecap="round"/>
  <!-- 镜片光泽 -->
  <ellipse cx="40" cy="43" rx="3" ry="2" fill="#374151" opacity="0.7"/>
  <ellipse cx="60" cy="43" rx="3" ry="2" fill="#374151" opacity="0.7"/>

  <!-- 嘴巴（微笑） -->
  <path d="M38 56 Q48 64, 58 56" fill="none" stroke="#dc2626" stroke-width="2" stroke-linecap="round"/>

  <!-- English 文字 -->
  <text x="48" y="78" font-family="Arial, sans-serif" font-size="8" font-weight="bold" fill="#1f2937" text-anchor="middle">English</text>

  <!-- Quest 文字 -->
  <text x="48" y="20" font-family="Arial, sans-serif" font-size="7" font-weight="bold" fill="#ffffff" text-anchor="middle">Quest</text>

  <!-- 装饰星星 -->
  <g fill="#fbbf24" stroke="#f59e0b" stroke-width="0.5">
    <path d="M20 20 L21 22 L23 22 L21 23 L22 25 L20 24 L18 25 L19 23 L17 22 L19 22 Z"/>
    <path d="M75 23 L76 24 L77 24 L76 25 L76 26 L75 25 L74 26 L74 25 L73 24 L74 24 Z"/>
    <path d="M77 73 L78 74 L79 74 L78 75 L78 76 L77 75 L76 76 L76 75 L75 74 L76 74 Z"/>
    <path d="M18 73 L19 74 L20 74 L19 75 L19 76 L18 75 L17 76 L17 75 L16 74 L17 74 Z"/>
  </g>
</svg>