<svg xmlns="http://www.w3.org/2000/svg" viewBox="0 0 100 100" width="100" height="100">
  <!-- Background circle -->
  <circle cx="50" cy="50" r="45" fill="#FF9800" stroke="#F57C00" stroke-width="2"/>
  
  <!-- Happy face -->
  <circle cx="40" cy="35" r="4" fill="#FFF"/>
  <circle cx="60" cy="35" r="4" fill="#FFF"/>
  
  <!-- Big smile -->
  <path d="M 30 50 Q 50 70 70 50" stroke="#FFF" stroke-width="4" fill="none" stroke-linecap="round"/>
  
  <!-- Fun stars around -->
  <g fill="#FFD54F">
    <!-- Star 1 -->
    <path d="M 20 20 L 22 26 L 28 26 L 23 30 L 25 36 L 20 32 L 15 36 L 17 30 L 12 26 L 18 26 Z"/>
    <!-- Star 2 -->
    <path d="M 75 15 L 77 21 L 83 21 L 78 25 L 80 31 L 75 27 L 70 31 L 72 25 L 67 21 L 73 21 Z"/>
    <!-- Star 3 -->
    <path d="M 85 70 L 87 76 L 93 76 L 88 80 L 90 86 L 85 82 L 80 86 L 82 80 L 77 76 L 83 76 Z"/>
    <!-- Star 4 -->
    <path d="M 15 75 L 17 81 L 23 81 L 18 85 L 20 91 L 15 87 L 10 91 L 12 85 L 7 81 L 13 81 Z"/>
  </g>
  
  <!-- Sparkles -->
  <g fill="#FFF" opacity="0.8">
    <circle cx="25" cy="45" r="2"/>
    <circle cx="75" cy="40" r="2"/>
    <circle cx="30" cy="70" r="1.5"/>
    <circle cx="70" cy="75" r="1.5"/>
  </g>
  
  <!-- Excitement lines -->
  <g stroke="#FFE082" stroke-width="2" opacity="0.6">
    <line x1="35" y1="15" x2="37" y2="25"/>
    <line x1="65" y1="15" x2="63" y2="25"/>
    <line x1="85" y1="35" x2="75" y2="37"/>
    <line x1="85" y1="55" x2="75" y2="53"/>
  </g>
</svg>